{
  "accessors": [
    {
      "bufferView": 2,
      "componentType": 5126,
      "count": 10277,
      "max": [
        2984.97998046875,
        134.5458984375,
        92.79618072509766
      ],
      "min": [
        4.346398830413818,
        -134.5458984375,
        -191.45579528808594
      ],
      "type": "VEC3"
    },
    {
      "bufferView": 2,
      "byteOffset": 123324,
      "componentType": 5126,
      "count": 10277,
      "max": [
        1.0,
        1.0,
        1.0
      ],
      "min": [
        -1.0,
        -1.0,
        -1.0
      ],
      "type": "VEC3"
    },
    {
      "bufferView": 0,
      "componentType": 5125,
      "count": 32733,
      "type": "SCALAR"
    },
    {
      "bufferView": 2,
      "byteOffset": 246648,
      "componentType": 5126,
      "count": 12,
      "max": [
        200.02499389648438,
        2.842170943040401e-14,
        -95.11106872558594
      ],
      "min": [
        190.31829833984375,
        9.769962616701378e-15,
        -108.85359954833984
      ],
      "type": "VEC3"
    },
    {
      "bufferView": 2,
      "byteOffset": 246792,
      "componentType": 5126,
      "count": 12,
      "max": [
        1.7218469869917656e-15,
        1.0,
        3.361474984540751e-14
      ],
      "min": [
        0.0,
        -1.0,
        0.0
      ],
      "type": "VEC3"
    },
    {
      "bufferView": 1,
      "componentType": 5126,
      "count": 12,
      "max": [
        0.0829121395945549,
        0.6421898007392883
      ],
      "min": [
        0.0805620476603508,
        0.6339808702468872
      ],
      "type": "VEC2"
    },
    {
      "bufferView": 0,
      "byteOffset": 130932,
      "componentType": 5125,
      "count": 12,
      "type": "SCALAR"
    },
    {
      "bufferView": 2,
      "byteOffset": 246936,
      "componentType": 5126,
      "count": 65532,
      "max": [
        3018.794921875,
        77.09996032714844,
        225.66510009765625
      ],
      "min": [
        4.157043933868408,
        -77.09996032714844,
        -2.6365919809836352e-14
      ],
      "type": "VEC3"
    },
    {
      "bufferView": 2,
      "byteOffset": 1033320,
      "componentType": 5126,
      "count": 65532,
      "max": [
        1.0,
        1.0,
        1.0
      ],
      "min": [
        -1.0,
        -1.0,
        -1.0
      ],
      "type": "VEC3"
    },
    {
      "bufferView": 0,
      "byteOffset": 130980,
      "componentType": 5125,
      "count": 228498,
      "type": "SCALAR"
    },
    {
      "bufferView": 2,
      "byteOffset": 1819704,
      "componentType": 5126,
      "count": 14592,
      "max": [
        2112.591064453125,
        76.18109893798828,
        225.66510009765625
      ],
      "min": [
        1561.1802978515625,
        -14.110729217529297,
        57.808773040771484
      ],
      "type": "VEC3"
    },
    {
      "bufferView": 2,
      "byteOffset": 1994808,
      "componentType": 5126,
      "count": 14592,
      "max": [
        1.0,
        1.0,
        1.0
      ],
      "min": [
        -1.0,
        -1.0,
        -1.0
      ],
      "type": "VEC3"
    },
    {
      "bufferView": 0,
      "byteOffset": 1044972,
      "componentType": 5125,
      "count": 49668,
      "type": "SCALAR"
    },
    {
      "bufferView": 2,
      "byteOffset": 2169912,
      "componentType": 5126,
      "count": 64,
      "max": [
        2026.843994140625,
        68.89763641357422,
        31.134429931640625
      ],
      "min": [
        886.36767578125,
        -68.89763641357422,
        13.020400047302246
      ],
      "type": "VEC3"
    },
    {
      "bufferView": 2,
      "byteOffset": 2170680,
      "componentType": 5126,
      "count": 64,
      "max": [
        0.027333799749612808,
        0.9999781250953674,
        8.181790240159668e-15
      ],
      "min": [
        -0.14842060208320618,
        -0.9999781250953674,
        -0.6593453884124756
      ],
      "type": "VEC3"
    },
    {
      "bufferView": 0,
      "byteOffset": 1243644,
      "componentType": 5125,
      "count": 108,
      "type": "SCALAR"
    },
    {
      "bufferView": 2,
      "byteOffset": 2171448,
      "componentType": 5126,
      "count": 316,
      "max": [
        2737.37109375,
        87.7434310913086,
        91.22136688232422
      ],
      "min": [
        211.21432495117188,
        -87.7434310913086,
        -122.94539642333984
      ],
      "type": "VEC3"
    },
    {
      "bufferView": 2,
      "byteOffset": 2175240,
      "componentType": 5126,
      "count": 316,
      "max": [
        1.0,
        1.0,
        1.0
      ],
      "min": [
        -0.9999998807907104,
        -1.0,
        -0.8673868179321289
      ],
      "type": "VEC3"
    },
    {
      "bufferView": 0,
      "byteOffset": 1244076,
      "componentType": 5125,
      "count": 708,
      "type": "SCALAR"
    },
    {
      "bufferView": 2,
      "byteOffset": 2179032,
      "componentType": 5126,
      "count": 426,
      "max": [
        2941.673095703125,
        31.49605941772461,
        -16.43079948425293
      ],
      "min": [
        2824.3779296875,
        -31.49605941772461,
        -79.42292785644531
      ],
      "type": "VEC3"
    },
    {
      "bufferView": 2,
      "byteOffset": 2184144,
      "componentType": 5126,
      "count": 426,
      "max": [
        0.30806300044059753,
        0.9919432997703552,
        0.09773795306682587
      ],
      "min": [
        0.1259405016899109,
        -0.9919432997703552,
        -0.4149582087993622
      ],
      "type": "VEC3"
    },
    {
      "bufferView": 0,
      "byteOffset": 1246908,
      "componentType": 5125,
      "count": 678,
      "type": "SCALAR"
    },
    {
      "bufferView": 2,
      "byteOffset": 2189256,
      "componentType": 5126,
      "count": 11653,
      "max": [
        2970.812255859375,
        76.20570373535156,
        129.410400390625
      ],
      "min": [
        79.20498657226563,
        -76.20570373535156,
        28.680309295654297
      ],
      "type": "VEC3"
    },
    {
      "bufferView": 2,
      "byteOffset": 2329092,
      "componentType": 5126,
      "count": 11653,
      "max": [
        1.0,
        1.0,
        1.0
      ],
      "min": [
        -1.0,
        -1.0,
        -1.0
      ],
      "type": "VEC3"
    },
    {
      "bufferView": 0,
      "byteOffset": 1249620,
      "componentType": 5125,
      "count": 29298,
      "type": "SCALAR"
    },
    {
      "bufferView": 2,
      "byteOffset": 2468928,
      "componentType": 5126,
      "count": 239,
      "max": [
        2984.97998046875,
        76.70626068115234,
        209.3349609375
      ],
      "min": [
        -1.7053029724000551e-13,
        -76.70626068115234,
        -5.254217878458e-30
      ],
      "type": "VEC3"
    },
    {
      "bufferView": 0,
      "byteOffset": 1366812,
      "componentType": 5125,
      "count": 264,
      "type": "SCALAR"
    },
    {
      "bufferView": 2,
      "byteOffset": 2471796,
      "componentType": 5126,
      "count": 62,
      "max": [
        796.1287231445313,
        87.38069152832031,
        -48.683502197265625
      ],
      "min": [
        134.24365234375,
        -87.38069152832031,
        -115.64019775390625
      ],
      "type": "VEC3"
    },
    {
      "bufferView": 0,
      "byteOffset": 1367868,
      "componentType": 5125,
      "count": 76,
      "type": "SCALAR"
    },
    {
      "bufferView": 2,
      "byteOffset": 2472540,
      "componentType": 5126,
      "count": 80,
      "max": [
        2888.11279296875,
        75.52516174316406,
        109.599609375
      ],
      "min": [
        136.80682373046875,
        -75.52516174316406,
        72.6036376953125
      ],
      "type": "VEC3"
    },
    {
      "bufferView": 0,
      "byteOffset": 1368172,
      "componentType": 5125,
      "count": 80,
      "type": "SCALAR"
    },
    {
      "bufferView": 2,
      "byteOffset": 2473500,
      "componentType": 5126,
      "count": 858,
      "max": [
        219.6605682373047,
        91.1856689453125,
        -71.4969253540039
      ],
      "min": [
        211.21432495117188,
        -91.1856689453125,
        -122.94539642333984
      ],
      "type": "VEC3"
    },
    {
      "bufferView": 2,
      "byteOffset": 2483796,
      "componentType": 5126,
      "count": 858,
      "max": [
        1.0,
        1.0,
        1.0
      ],
      "min": [
        -0.9862427115440369,
        -1.0,
        -1.0
      ],
      "type": "VEC3"
    },
    {
      "bufferView": 0,
      "byteOffset": 1368492,
      "componentType": 5125,
      "count": 1866,
      "type": "SCALAR"
    },
    {
      "bufferView": 2,
      "byteOffset": 2494092,
      "componentType": 5126,
      "count": 731,
      "max": [
        1787.6351318359375,
        14.763779640197754,
        142.30633544921875
      ],
      "min": [
        1744.918701171875,
        -14.763779640197754,
        129.41036987304688
      ],
      "type": "VEC3"
    },
    {
      "bufferView": 2,
      "byteOffset": 2502864,
      "componentType": 5126,
      "count": 731,
      "max": [
        1.0,
        1.0,
        1.0
      ],
      "min": [
        -1.0,
        -1.0,
        -1.0
      ],
      "type": "VEC3"
    },
    {
      "bufferView": 0,
      "byteOffset": 1375956,
      "componentType": 5125,
      "count": 2148,
      "type": "SCALAR"
    }
  ],
  "asset": {
    "extras": {
      "author": "martyn169 (https://sketchfab.com/martyn169)",
      "license": "CC-BY-4.0 (http://creativecommons.org/licenses/by/4.0/)",
      "source": "https://sketchfab.com/3d-models/type-vii-d-u-boat-da8cc9fafbb7440d9b9203349302eb35",
      "title": "Type VII D U-boat"
    },
    "generator": "Sketchfab-14.5.0",
    "version": "2.0"
  },
  "bufferViews": [
    {
      "buffer": 0,
      "byteLength": 1384548,
      "name": "floatBufferViews",
      "target": 34963
    },
    {
      "buffer": 0,
      "byteLength": 96,
      "byteOffset": 1384548,
      "byteStride": 8,
      "name": "floatBufferViews",
      "target": 34962
    },
    {
      "buffer": 0,
      "byteLength": 2511636,
      "byteOffset": 1384644,
      "byteStride": 12,
      "name": "floatBufferViews",
      "target": 34962
    }
  ],
  "buffers": [
    {
      "byteLength": 3896280,
      "uri": "scene.bin"
    }
  ],
  "materials": [
    {
      "name": "Underwater",
      "pbrMetallicRoughness": {
        "baseColorFactor": [
          0.2140182210341784,
          0.18896859213343464,
          0.2953043464009595,
          1.0
        ],
        "metallicFactor": 0.0,
        "roughnessFactor": 0.6
      }
    },
    {
      "name": "Screenshot_2022-09-06_160730",
      "pbrMetallicRoughness": {
        "metallicFactor": 0.0,
        "roughnessFactor": 0.6
      }
    },
    {
      "name": "Above_water",
      "pbrMetallicRoughness": {
        "baseColorFactor": [
          0.3325601929113308,
          0.33042868419491783,
          0.40990987343505997,
          1.0
        ],
        "metallicFactor": 0.0,
        "roughnessFactor": 0.6
      }
    },
    {
      "name": "0137_Black",
      "pbrMetallicRoughness": {
        "baseColorFactor": [
          0.0,
          0.0,
          0.0,
          1.0
        ],
        "metallicFactor": 0.0,
        "roughnessFactor": 0.6
      }
    },
    {
      "name": "material",
      "pbrMetallicRoughness": {
        "metallicFactor": 0.0,
        "roughnessFactor": 0.6
      }
    },
    {
      "name": "Torpedo_Tubes",
      "pbrMetallicRoughness": {
        "baseColorFactor": [
          0.321569,
          0.384314,
          0.462745,
          1.0
        ],
        "metallicFactor": 0.0,
        "roughnessFactor": 0.6
      }
    },
    {
      "name": "0136_Charcoal",
      "pbrMetallicRoughness": {
        "baseColorFactor": [
          0.137255,
          0.137255,
          0.137255,
          1.0
        ],
        "metallicFactor": 0.0,
        "roughnessFactor": 0.6
      }
    },
    {
      "name": "edge_color178177214255",
      "pbrMetallicRoughness": {
        "metallicFactor": 0.0,
        "roughnessFactor": 0.6
      }
    },
    {
      "name": "edge_color10398118255",
      "pbrMetallicRoughness": {
        "metallicFactor": 0.0,
        "roughnessFactor": 0.6
      }
    },
    {
      "name": "edge_color000255",
      "pbrMetallicRoughness": {
        "metallicFactor": 0.0,
        "roughnessFactor": 0.6
      }
    },
    {
      "name": "0045_Goldenrod",
      "pbrMetallicRoughness": {
        "baseColorFactor": [
          0.854902,
          0.647059,
          0.12549,
          1.0
        ],
        "metallicFactor": 0.0,
        "roughnessFactor": 0.6
      }
    },
    {
      "name": "Monitor_Black",
      "pbrMetallicRoughness": {
        "baseColorFactor": [
          0.196078,
          0.196078,
          0.196078,
          1.0
        ],
        "metallicFactor": 0.0,
        "roughnessFactor": 0.6
      }
    }
  ],
  "meshes": [
    {
      "name": "Material2",
      "primitives": [
        {
          "attributes": {
            "NORMAL": 1,
            "POSITION": 0
          },
          "indices": 2,
          "material": 0,
          "mode": 4
        }
      ]
    },
    {
      "name": "Material3",
      "primitives": [
        {
          "attributes": {
            "NORMAL": 4,
            "POSITION": 3,
            "TEXCOORD_0": 5
          },
          "indices": 6,
          "material": 1,
          "mode": 4
        }
      ]
    },
    {
      "name": "Material2",
      "primitives": [
        {
          "attributes": {
            "NORMAL": 8,
            "POSITION": 7
          },
          "indices": 9,
          "material": 2,
          "mode": 4
        }
      ]
    },
    {
      "name": "Material2",
      "primitives": [
        {
          "attributes": {
            "NORMAL": 11,
            "POSITION": 10
          },
          "indices": 12,
          "material": 2,
          "mode": 4
        }
      ]
    },
    {
      "name": "Material2",
      "primitives": [
        {
          "attributes": {
            "NORMAL": 14,
            "POSITION": 13
          },
          "indices": 15,
          "material": 3,
          "mode": 4
        }
      ]
    },
    {
      "name": "Material2",
      "primitives": [
        {
          "attributes": {
            "NORMAL": 17,
            "POSITION": 16
          },
          "indices": 18,
          "material": 4,
          "mode": 4
        }
      ]
    },
    {
      "name": "Material2",
      "primitives": [
        {
          "attributes": {
            "NORMAL": 20,
            "POSITION": 19
          },
          "indices": 21,
          "material": 5,
          "mode": 4
        }
      ]
    },
    {
      "name": "Material2",
      "primitives": [
        {
          "attributes": {
            "NORMAL": 23,
            "POSITION": 22
          },
          "indices": 24,
          "material": 6,
          "mode": 4
        }
      ]
    },
    {
      "name": "Material2",
      "primitives": [
        {
          "attributes": {
            "POSITION": 25
          },
          "indices": 26,
          "material": 7,
          "mode": 1
        }
      ]
    },
    {
      "name": "Material2",
      "primitives": [
        {
          "attributes": {
            "POSITION": 27
          },
          "indices": 28,
          "material": 8,
          "mode": 1
        }
      ]
    },
    {
      "name": "Material2",
      "primitives": [
        {
          "attributes": {
            "POSITION": 29
          },
          "indices": 30,
          "material": 9,
          "mode": 1
        }
      ]
    },
    {
      "name": "Material2",
      "primitives": [
        {
          "attributes": {
            "NORMAL": 32,
            "POSITION": 31
          },
          "indices": 33,
          "material": 10,
          "mode": 4
        }
      ]
    },
    {
      "name": "Material3",
      "primitives": [
        {
          "attributes": {
            "NORMAL": 35,
            "POSITION": 34
          },
          "indices": 36,
          "material": 11,
          "mode": 4
        }
      ]
    }
  ],
  "nodes": [
    {
      "children": [
        1
      ],
      "matrix": [
        1.0,
        0.0,
        0.0,
        0.0,
        0.0,
        2.220446049250313e-16,
        -1.0,
        0.0,
        0.0,
        1.0,
        2.220446049250313e-16,
        0.0,
        0.0,
        0.0,
        0.0,
        1.0
      ],
      "name": "Sketchfab_model"
    },
    {
      "children": [
        2,
        3,
        4,
        5,
        6,
        7,
        8,
        9,
        10,
        11,
        12,
        13,
        14,
        15
      ],
      "name": "Collada visual scene group"
    },
    {
      "mesh": 0,
      "name": "Material2"
    },
    {
      "mesh": 1,
      "name": "Material3"
    },
    {
      "mesh": 2,
      "name": "Material2"
    },
    {
      "mesh": 3,
      "name": "Material2"
    },
    {
      "mesh": 4,
      "name": "Material2"
    },
    {
      "mesh": 5,
      "name": "Material2"
    },
    {
      "mesh": 6,
      "name": "Material2"
    },
    {
      "mesh": 7,
      "name": "Material2"
    },
    {
      "mesh": 8,
      "name": "Material2"
    },
    {
      "mesh": 9,
      "name": "Material2"
    },
    {
      "mesh": 10,
      "name": "Material2"
    },
    {
      "mesh": 11,
      "name": "Material2"
    },
    {
      "mesh": 12,
      "name": "Material3"
    },
    {
      "children": [
        16
      ],
      "name": "SketchUp"
    },
    {
      "children": [
        17
      ],
      "matrix": [
        0.9886351,
        0.1503353,
        -3.469447e-18,
        0.0,
        -0.02133484,
        0.1403022,
        0.9898788,
        0.0,
        0.1488137,
        -0.9786289,
        0.1419151,
        0.0,
        2395.299,
        -1190.542,
        100.0634,
        1.0
      ],
      "name": "skp_camera_Last_Saved_SketchUp_View"
    },
    {
      "name": "ID1"
    }
  ],
  "scene": 0,
  "scenes": [
    {
      "name": "Sketchfab_Scene",
      "nodes": [
        0
      ]
    }
  ]
}
