{
  "accessors": [
    {
      "bufferView": 2,
      "componentType": 5126,
      "count": 82,
      "max": [
        0.3702400028705597,
        0.1574999988079071,
        0.006779999937862158
      ],
      "min": [
        -1.6920599937438965,
        -0.1574999988079071,
        -1.8630000352859497
      ],
      "type": "VEC3"
    },
    {
      "bufferView": 2,
      "byteOffset": 984,
      "componentType": 5126,
      "count": 82,
      "max": [
        1.0,
        1.0,
        0.9105954766273499
      ],
      "min": [
        -1.0,
        -1.0,
        -0.9995231032371521
      ],
      "type": "VEC3"
    },
    {
      "bufferView": 1,
      "componentType": 5126,
      "count": 82,
      "max": [
        0.9958599805831909,
        0.9897699952125549
      ],
      "min": [
        0.004509999882429838,
        0.0051899999380111694
      ],
      "type": "VEC2"
    },
    {
      "bufferView": 0,
      "componentType": 5125,
      "count": 228,
      "type": "SCALAR"
    },
    {
      "bufferView": 2,
      "byteOffset": 1968,
      "componentType": 5126,
      "count": 82,
      "max": [
        0.3702400028705597,
        0.1574999988079071,
        0.006779999937862158
      ],
      "min": [
        -1.6920599937438965,
        -0.1574999988079071,
        -1.8630000352859497
      ],
      "type": "VEC3"
    },
    {
      "bufferView": 2,
      "byteOffset": 2952,
      "componentType": 5126,
      "count": 82,
      "max": [
        1.0,
        1.0,
        0.9105954766273499
      ],
      "min": [
        -1.0,
        -1.0,
        -0.9995231032371521
      ],
      "type": "VEC3"
    },
    {
      "bufferView": 1,
      "byteOffset": 656,
      "componentType": 5126,
      "count": 82,
      "max": [
        0.9958599805831909,
        0.9897699952125549
      ],
      "min": [
        0.004509999882429838,
        0.0051899999380111694
      ],
      "type": "VEC2"
    },
    {
      "bufferView": 0,
      "byteOffset": 912,
      "componentType": 5125,
      "count": 228,
      "type": "SCALAR"
    },
    {
      "bufferView": 2,
      "byteOffset": 3936,
      "componentType": 5126,
      "count": 154,
      "max": [
        0.1860799938440323,
        0.7571899890899658,
        0.7739499807357788
      ],
      "min": [
        -1.077530026435852,
        -0.6392999887466431,
        -0.6028299927711487
      ],
      "type": "VEC3"
    },
    {
      "bufferView": 2,
      "byteOffset": 5784,
      "componentType": 5126,
      "count": 154,
      "max": [
        0.9959896206855774,
        1.0,
        1.0
      ],
      "min": [
        -1.0,
        -1.0,
        -1.0
      ],
      "type": "VEC3"
    },
    {
      "bufferView": 1,
      "byteOffset": 1312,
      "componentType": 5126,
      "count": 154,
      "max": [
        0.9932799935340881,
        0.9941800236701965
      ],
      "min": [
        0.0060800001956522465,
        0.004389999900013208
      ],
      "type": "VEC2"
    },
    {
      "bufferView": 0,
      "byteOffset": 1824,
      "componentType": 5125,
      "count": 480,
      "type": "SCALAR"
    },
    {
      "bufferView": 2,
      "byteOffset": 7632,
      "componentType": 5126,
      "count": 154,
      "max": [
        0.1860799938440323,
        0.7571899890899658,
        0.7739499807357788
      ],
      "min": [
        -1.077530026435852,
        -0.6392999887466431,
        -0.6028299927711487
      ],
      "type": "VEC3"
    },
    {
      "bufferView": 2,
      "byteOffset": 9480,
      "componentType": 5126,
      "count": 154,
      "max": [
        0.9959896206855774,
        1.0,
        1.0
      ],
      "min": [
        -1.0,
        -1.0,
        -1.0
      ],
      "type": "VEC3"
    },
    {
      "bufferView": 1,
      "byteOffset": 2544,
      "componentType": 5126,
      "count": 154,
      "max": [
        0.9932799935340881,
        0.9941800236701965
      ],
      "min": [
        0.0060800001956522465,
        0.004389999900013208
      ],
      "type": "VEC2"
    },
    {
      "bufferView": 0,
      "byteOffset": 3744,
      "componentType": 5125,
      "count": 480,
      "type": "SCALAR"
    },
    {
      "bufferView": 2,
      "byteOffset": 11328,
      "componentType": 5126,
      "count": 1598,
      "max": [
        0.6444900035858154,
        2.0175700187683105,
        3.7262299060821533
      ],
      "min": [
        -0.30000001192092896,
        -2.0175700187683105,
        -0.060759998857975006
      ],
      "type": "VEC3"
    },
    {
      "bufferView": 2,
      "byteOffset": 30504,
      "componentType": 5126,
      "count": 1598,
      "max": [
        1.0,
        1.0,
        1.0
      ],
      "min": [
        -1.0,
        -1.0,
        -1.0
      ],
      "type": "VEC3"
    },
    {
      "bufferView": 1,
      "byteOffset": 3776,
      "componentType": 5126,
      "count": 1598,
      "max": [
        0.9944499731063843,
        0.9933099746704102
      ],
      "min": [
        0.005049999803304672,
        0.005179999861866236
      ],
      "type": "VEC2"
    },
    {
      "bufferView": 0,
      "byteOffset": 5664,
      "componentType": 5125,
      "count": 2448,
      "type": "SCALAR"
    },
    {
      "bufferView": 2,
      "byteOffset": 49680,
      "componentType": 5126,
      "count": 479,
      "max": [
        0.9502000212669373,
        1.7676199674606323,
        0.5730000138282776
      ],
      "min": [
        -0.9502000212669373,
        -1.7676199674606323,
        -1.1220300197601318
      ],
      "type": "VEC3"
    },
    {
      "bufferView": 2,
      "byteOffset": 55428,
      "componentType": 5126,
      "count": 479,
      "max": [
        1.0,
        1.0,
        1.0
      ],
      "min": [
        -1.0,
        -1.0,
        -1.0
      ],
      "type": "VEC3"
    },
    {
      "bufferView": 1,
      "byteOffset": 16560,
      "componentType": 5126,
      "count": 479,
      "max": [
        0.997979998588562,
        0.6362299919128418
      ],
      "min": [
        0.0037400000728666782,
        0.0024900001008063555
      ],
      "type": "VEC2"
    },
    {
      "bufferView": 0,
      "byteOffset": 15456,
      "componentType": 5125,
      "count": 1056,
      "type": "SCALAR"
    },
    {
      "bufferView": 2,
      "byteOffset": 61176,
      "componentType": 5126,
      "count": 966,
      "max": [
        1.0310800075531006,
        0.9350600242614746,
        1.9594800472259521
      ],
      "min": [
        -0.8550000190734863,
        -0.9350600242614746,
        0.0
      ],
      "type": "VEC3"
    },
    {
      "bufferView": 2,
      "byteOffset": 72768,
      "componentType": 5126,
      "count": 966,
      "max": [
        1.0,
        1.0,
        1.0
      ],
      "min": [
        -1.0,
        -1.0,
        -1.0
      ],
      "type": "VEC3"
    },
    {
      "bufferView": 1,
      "byteOffset": 20392,
      "componentType": 5126,
      "count": 966,
      "max": [
        0.9983400106430054,
        0.8789499998092651
      ],
      "min": [
        0.000539999979082495,
        0.002859999891370535
      ],
      "type": "VEC2"
    },
    {
      "bufferView": 0,
      "byteOffset": 19680,
      "componentType": 5125,
      "count": 2163,
      "type": "SCALAR"
    },
    {
      "bufferView": 2,
      "byteOffset": 84360,
      "componentType": 5126,
      "count": 344,
      "max": [
        2.376810073852539,
        0.41554000973701477,
        0.6185100078582764
      ],
      "min": [
        -1.288540005683899,
        -0.41554000973701477,
        -0.13976000249385834
      ],
      "type": "VEC3"
    },
    {
      "bufferView": 2,
      "byteOffset": 88488,
      "componentType": 5126,
      "count": 344,
      "max": [
        1.0,
        1.0,
        1.0
      ],
      "min": [
        -1.0,
        -1.0,
        -1.0
      ],
      "type": "VEC3"
    },
    {
      "bufferView": 1,
      "byteOffset": 28120,
      "componentType": 5126,
      "count": 344,
      "max": [
        0.994979977607727,
        0.9982399940490723
      ],
      "min": [
        0.0017900000093504786,
        0.7815499901771545
      ],
      "type": "VEC2"
    },
    {
      "bufferView": 0,
      "byteOffset": 28332,
      "componentType": 5125,
      "count": 804,
      "type": "SCALAR"
    },
    {
      "bufferView": 2,
      "byteOffset": 92616,
      "componentType": 5126,
      "count": 869,
      "max": [
        0.30000001192092896,
        0.43709999322891235,
        1.3654299974441528
      ],
      "min": [
        -0.92194002866745,
        -0.28560999035835266,
        -0.008329999633133411
      ],
      "type": "VEC3"
    },
    {
      "bufferView": 2,
      "byteOffset": 103044,
      "componentType": 5126,
      "count": 869,
      "max": [
        1.0,
        1.0,
        1.0
      ],
      "min": [
        -1.0,
        -1.0,
        -1.0
      ],
      "type": "VEC3"
    },
    {
      "bufferView": 1,
      "byteOffset": 30872,
      "componentType": 5126,
      "count": 869,
      "max": [
        0.9955099821090698,
        0.893339991569519
      ],
      "min": [
        0.0026199999265372753,
        0.0035200000274926424
      ],
      "type": "VEC2"
    },
    {
      "bufferView": 0,
      "byteOffset": 31548,
      "componentType": 5125,
      "count": 1869,
      "type": "SCALAR"
    },
    {
      "bufferView": 2,
      "byteOffset": 113472,
      "componentType": 5126,
      "count": 680,
      "max": [
        1.4101099967956543,
        0.6050699949264526,
        0.5151399970054626
      ],
      "min": [
        -1.2955199480056763,
        -0.5686100125312805,
        -0.18672999739646912
      ],
      "type": "VEC3"
    },
    {
      "bufferView": 2,
      "byteOffset": 121632,
      "componentType": 5126,
      "count": 680,
      "max": [
        1.0,
        1.0,
        1.0
      ],
      "min": [
        -1.0,
        -1.0,
        -1.0
      ],
      "type": "VEC3"
    },
    {
      "bufferView": 1,
      "byteOffset": 37824,
      "componentType": 5126,
      "count": 680,
      "max": [
        0.99795001745224,
        0.998989999294281
      ],
      "min": [
        0.002689999993890524,
        0.30208998918533325
      ],
      "type": "VEC2"
    },
    {
      "bufferView": 0,
      "byteOffset": 39024,
      "componentType": 5125,
      "count": 1497,
      "type": "SCALAR"
    },
    {
      "bufferView": 2,
      "byteOffset": 129792,
      "componentType": 5126,
      "count": 680,
      "max": [
        1.4101099967956543,
        0.6050699949264526,
        0.5151399970054626
      ],
      "min": [
        -1.2955199480056763,
        -0.5686100125312805,
        -0.18672999739646912
      ],
      "type": "VEC3"
    },
    {
      "bufferView": 2,
      "byteOffset": 137952,
      "componentType": 5126,
      "count": 680,
      "max": [
        1.0,
        1.0,
        1.0
      ],
      "min": [
        -1.0,
        -1.0,
        -1.0
      ],
      "type": "VEC3"
    },
    {
      "bufferView": 1,
      "byteOffset": 43264,
      "componentType": 5126,
      "count": 680,
      "max": [
        0.99795001745224,
        0.998989999294281
      ],
      "min": [
        0.002689999993890524,
        0.30208998918533325
      ],
      "type": "VEC2"
    },
    {
      "bufferView": 0,
      "byteOffset": 45012,
      "componentType": 5125,
      "count": 1497,
      "type": "SCALAR"
    },
    {
      "bufferView": 2,
      "byteOffset": 146112,
      "componentType": 5126,
      "count": 869,
      "max": [
        0.30000001192092896,
        0.43709999322891235,
        1.3654299974441528
      ],
      "min": [
        -0.92194002866745,
        -0.28560999035835266,
        -0.008329999633133411
      ],
      "type": "VEC3"
    },
    {
      "bufferView": 2,
      "byteOffset": 156540,
      "componentType": 5126,
      "count": 869,
      "max": [
        1.0,
        1.0,
        1.0
      ],
      "min": [
        -1.0,
        -1.0,
        -1.0
      ],
      "type": "VEC3"
    },
    {
      "bufferView": 1,
      "byteOffset": 48704,
      "componentType": 5126,
      "count": 869,
      "max": [
        0.9955099821090698,
        0.893339991569519
      ],
      "min": [
        0.0026199999265372753,
        0.0035200000274926424
      ],
      "type": "VEC2"
    },
    {
      "bufferView": 0,
      "byteOffset": 51000,
      "componentType": 5125,
      "count": 1869,
      "type": "SCALAR"
    },
    {
      "bufferView": 2,
      "byteOffset": 166968,
      "componentType": 5126,
      "count": 680,
      "max": [
        1.4101099967956543,
        0.6050699949264526,
        0.5151399970054626
      ],
      "min": [
        -1.2955199480056763,
        -0.5686100125312805,
        -0.18672999739646912
      ],
      "type": "VEC3"
    },
    {
      "bufferView": 2,
      "byteOffset": 175128,
      "componentType": 5126,
      "count": 680,
      "max": [
        1.0,
        1.0,
        1.0
      ],
      "min": [
        -1.0,
        -1.0,
        -1.0
      ],
      "type": "VEC3"
    },
    {
      "bufferView": 1,
      "byteOffset": 55656,
      "componentType": 5126,
      "count": 680,
      "max": [
        0.99795001745224,
        0.998989999294281
      ],
      "min": [
        0.002689999993890524,
        0.30208998918533325
      ],
      "type": "VEC2"
    },
    {
      "bufferView": 0,
      "byteOffset": 58476,
      "componentType": 5125,
      "count": 1497,
      "type": "SCALAR"
    },
    {
      "bufferView": 2,
      "byteOffset": 183288,
      "componentType": 5126,
      "count": 869,
      "max": [
        0.30000001192092896,
        0.43709999322891235,
        1.3654299974441528
      ],
      "min": [
        -0.92194002866745,
        -0.28560999035835266,
        -0.008329999633133411
      ],
      "type": "VEC3"
    },
    {
      "bufferView": 2,
      "byteOffset": 193716,
      "componentType": 5126,
      "count": 869,
      "max": [
        1.0,
        1.0,
        1.0
      ],
      "min": [
        -1.0,
        -1.0,
        -1.0
      ],
      "type": "VEC3"
    },
    {
      "bufferView": 1,
      "byteOffset": 61096,
      "componentType": 5126,
      "count": 869,
      "max": [
        0.9955099821090698,
        0.893339991569519
      ],
      "min": [
        0.0026199999265372753,
        0.0035200000274926424
      ],
      "type": "VEC2"
    },
    {
      "bufferView": 0,
      "byteOffset": 64464,
      "componentType": 5125,
      "count": 1869,
      "type": "SCALAR"
    },
    {
      "bufferView": 2,
      "byteOffset": 204144,
      "componentType": 5126,
      "count": 1840,
      "max": [
        1.098889946937561,
        1.1252399682998657,
        1.821120023727417
      ],
      "min": [
        -1.4349299669265747,
        -1.1252399682998657,
        -0.22050000727176666
      ],
      "type": "VEC3"
    },
    {
      "bufferView": 2,
      "byteOffset": 226224,
      "componentType": 5126,
      "count": 1840,
      "max": [
        1.0,
        1.0,
        1.0
      ],
      "min": [
        -1.0,
        -1.0,
        -1.0
      ],
      "type": "VEC3"
    },
    {
      "bufferView": 1,
      "byteOffset": 68048,
      "componentType": 5126,
      "count": 1840,
      "max": [
        0.9950399994850159,
        0.6629499793052673
      ],
      "min": [
        0.0005300000193528831,
        0.002420000033453107
      ],
      "type": "VEC2"
    },
    {
      "bufferView": 0,
      "byteOffset": 71940,
      "componentType": 5125,
      "count": 3180,
      "type": "SCALAR"
    },
    {
      "bufferView": 2,
      "byteOffset": 248304,
      "componentType": 5126,
      "count": 1008,
      "max": [
        2.135430097579956,
        0.8696100115776062,
        0.5692499876022339
      ],
      "min": [
        -0.5692499876022339,
        -0.8696100115776062,
        -0.5692499876022339
      ],
      "type": "VEC3"
    },
    {
      "bufferView": 2,
      "byteOffset": 260400,
      "componentType": 5126,
      "count": 1008,
      "max": [
        1.0,
        1.0,
        1.0
      ],
      "min": [
        -1.0,
        -1.0,
        -1.0
      ],
      "type": "VEC3"
    },
    {
      "bufferView": 1,
      "byteOffset": 82768,
      "componentType": 5126,
      "count": 1008,
      "max": [
        0.9961299896240234,
        0.995199978351593
      ],
      "min": [
        0.004559999797493219,
        0.508430004119873
      ],
      "type": "VEC2"
    },
    {
      "bufferView": 0,
      "byteOffset": 84660,
      "componentType": 5125,
      "count": 2688,
      "type": "SCALAR"
    },
    {
      "bufferView": 2,
      "byteOffset": 272496,
      "componentType": 5126,
      "count": 344,
      "max": [
        2.376810073852539,
        0.41554000973701477,
        0.6185100078582764
      ],
      "min": [
        -1.288540005683899,
        -0.41554000973701477,
        -0.13976000249385834
      ],
      "type": "VEC3"
    },
    {
      "bufferView": 2,
      "byteOffset": 276624,
      "componentType": 5126,
      "count": 344,
      "max": [
        1.0,
        1.0,
        1.0
      ],
      "min": [
        -1.0,
        -1.0,
        -1.0
      ],
      "type": "VEC3"
    },
    {
      "bufferView": 1,
      "byteOffset": 90832,
      "componentType": 5126,
      "count": 344,
      "max": [
        0.994979977607727,
        0.9982399940490723
      ],
      "min": [
        0.0017900000093504786,
        0.7815499901771545
      ],
      "type": "VEC2"
    },
    {
      "bufferView": 0,
      "byteOffset": 95412,
      "componentType": 5125,
      "count": 804,
      "type": "SCALAR"
    },
    {
      "bufferView": 2,
      "byteOffset": 280752,
      "componentType": 5126,
      "count": 966,
      "max": [
        1.0310800075531006,
        0.9350600242614746,
        1.9594800472259521
      ],
      "min": [
        -0.8550000190734863,
        -0.9350600242614746,
        0.0
      ],
      "type": "VEC3"
    },
    {
      "bufferView": 2,
      "byteOffset": 292344,
      "componentType": 5126,
      "count": 966,
      "max": [
        1.0,
        1.0,
        1.0
      ],
      "min": [
        -1.0,
        -1.0,
        -1.0
      ],
      "type": "VEC3"
    },
    {
      "bufferView": 1,
      "byteOffset": 93584,
      "componentType": 5126,
      "count": 966,
      "max": [
        0.9983400106430054,
        0.8789499998092651
      ],
      "min": [
        0.000539999979082495,
        0.002859999891370535
      ],
      "type": "VEC2"
    },
    {
      "bufferView": 0,
      "byteOffset": 98628,
      "componentType": 5125,
      "count": 2163,
      "type": "SCALAR"
    },
    {
      "bufferView": 2,
      "byteOffset": 303936,
      "componentType": 5126,
      "count": 680,
      "max": [
        1.4101099967956543,
        0.6050699949264526,
        0.5151399970054626
      ],
      "min": [
        -1.2955199480056763,
        -0.5686100125312805,
        -0.18672999739646912
      ],
      "type": "VEC3"
    },
    {
      "bufferView": 2,
      "byteOffset": 312096,
      "componentType": 5126,
      "count": 680,
      "max": [
        1.0,
        1.0,
        1.0
      ],
      "min": [
        -1.0,
        -1.0,
        -1.0
      ],
      "type": "VEC3"
    },
    {
      "bufferView": 1,
      "byteOffset": 101312,
      "componentType": 5126,
      "count": 680,
      "max": [
        0.99795001745224,
        0.998989999294281
      ],
      "min": [
        0.002689999993890524,
        0.30208998918533325
      ],
      "type": "VEC2"
    },
    {
      "bufferView": 0,
      "byteOffset": 107280,
      "componentType": 5125,
      "count": 1497,
      "type": "SCALAR"
    },
    {
      "bufferView": 2,
      "byteOffset": 320256,
      "componentType": 5126,
      "count": 869,
      "max": [
        0.30000001192092896,
        0.43709999322891235,
        1.3654299974441528
      ],
      "min": [
        -0.92194002866745,
        -0.28560999035835266,
        -0.008329999633133411
      ],
      "type": "VEC3"
    },
    {
      "bufferView": 2,
      "byteOffset": 330684,
      "componentType": 5126,
      "count": 869,
      "max": [
        1.0,
        1.0,
        1.0
      ],
      "min": [
        -1.0,
        -1.0,
        -1.0
      ],
      "type": "VEC3"
    },
    {
      "bufferView": 1,
      "byteOffset": 106752,
      "componentType": 5126,
      "count": 869,
      "max": [
        0.9955099821090698,
        0.893339991569519
      ],
      "min": [
        0.0026199999265372753,
        0.0035200000274926424
      ],
      "type": "VEC2"
    },
    {
      "bufferView": 0,
      "byteOffset": 113268,
      "componentType": 5125,
      "count": 1869,
      "type": "SCALAR"
    },
    {
      "bufferView": 2,
      "byteOffset": 341112,
      "componentType": 5126,
      "count": 1282,
      "max": [
        1.6104099750518799,
        1.1839699745178223,
        2.590179920196533
      ],
      "min": [
        -0.9770900011062622,
        -1.1839699745178223,
        -0.0946199968457222
      ],
      "type": "VEC3"
    },
    {
      "bufferView": 2,
      "byteOffset": 356496,
      "componentType": 5126,
      "count": 1282,
      "max": [
        1.0,
        1.0,
        1.0
      ],
      "min": [
        -1.0,
        -1.0,
        -1.0
      ],
      "type": "VEC3"
    },
    {
      "bufferView": 1,
      "byteOffset": 113704,
      "componentType": 5126,
      "count": 1282,
      "max": [
        0.9981399774551392,
        0.9994000196456909
      ],
      "min": [
        0.0015200000489130616,
        0.00215999991632998
      ],
      "type": "VEC2"
    },
    {
      "bufferView": 0,
      "byteOffset": 120744,
      "componentType": 5125,
      "count": 3354,
      "type": "SCALAR"
    },
    {
      "bufferView": 2,
      "byteOffset": 371880,
      "componentType": 5126,
      "count": 1125,
      "max": [
        3.423880100250244,
        0.8647300004959106,
        0.23319000005722046
      ],
      "min": [
        -1.2075799703598022,
        -0.8647300004959106,
        -0.5027499794960022
      ],
      "type": "VEC3"
    },
    {
      "bufferView": 2,
      "byteOffset": 385380,
      "componentType": 5126,
      "count": 1125,
      "max": [
        1.0,
        1.0,
        1.0
      ],
      "min": [
        -1.0,
        -1.0,
        -1.0
      ],
      "type": "VEC3"
    },
    {
      "bufferView": 1,
      "byteOffset": 123960,
      "componentType": 5126,
      "count": 1125,
      "max": [
        0.8351699709892273,
        0.47644001245498657
      ],
      "min": [
        0.025669999420642853,
        0.002589999930933118
      ],
      "type": "VEC2"
    },
    {
      "bufferView": 0,
      "byteOffset": 134160,
      "componentType": 5125,
      "count": 2580,
      "type": "SCALAR"
    },
    {
      "bufferView": 2,
      "byteOffset": 398880,
      "componentType": 5126,
      "count": 1125,
      "max": [
        3.423880100250244,
        0.8647300004959106,
        0.23319000005722046
      ],
      "min": [
        -1.2075799703598022,
        -0.8647300004959106,
        -0.5027499794960022
      ],
      "type": "VEC3"
    },
    {
      "bufferView": 2,
      "byteOffset": 412380,
      "componentType": 5126,
      "count": 1125,
      "max": [
        1.0,
        1.0,
        1.0
      ],
      "min": [
        -1.0,
        -1.0,
        -1.0
      ],
      "type": "VEC3"
    },
    {
      "bufferView": 1,
      "byteOffset": 132960,
      "componentType": 5126,
      "count": 1125,
      "max": [
        0.8351699709892273,
        0.47644001245498657
      ],
      "min": [
        0.025669999420642853,
        0.002589999930933118
      ],
      "type": "VEC2"
    },
    {
      "bufferView": 0,
      "byteOffset": 144480,
      "componentType": 5125,
      "count": 2580,
      "type": "SCALAR"
    },
    {
      "bufferView": 2,
      "byteOffset": 425880,
      "componentType": 5126,
      "count": 1282,
      "max": [
        1.6104099750518799,
        1.1839699745178223,
        2.590179920196533
      ],
      "min": [
        -0.9770900011062622,
        -1.1839699745178223,
        -0.0946199968457222
      ],
      "type": "VEC3"
    },
    {
      "bufferView": 2,
      "byteOffset": 441264,
      "componentType": 5126,
      "count": 1282,
      "max": [
        1.0,
        1.0,
        1.0
      ],
      "min": [
        -1.0,
        -1.0,
        -1.0
      ],
      "type": "VEC3"
    },
    {
      "bufferView": 1,
      "byteOffset": 141960,
      "componentType": 5126,
      "count": 1282,
      "max": [
        0.9981399774551392,
        0.9994000196456909
      ],
      "min": [
        0.0015200000489130616,
        0.00215999991632998
      ],
      "type": "VEC2"
    },
    {
      "bufferView": 0,
      "byteOffset": 154800,
      "componentType": 5125,
      "count": 3354,
      "type": "SCALAR"
    },
    {
      "bufferView": 2,
      "byteOffset": 456648,
      "componentType": 5126,
      "count": 1125,
      "max": [
        3.423880100250244,
        0.8647300004959106,
        0.23319000005722046
      ],
      "min": [
        -1.2075799703598022,
        -0.8647300004959106,
        -0.5027499794960022
      ],
      "type": "VEC3"
    },
    {
      "bufferView": 2,
      "byteOffset": 470148,
      "componentType": 5126,
      "count": 1125,
      "max": [
        1.0,
        1.0,
        1.0
      ],
      "min": [
        -1.0,
        -1.0,
        -1.0
      ],
      "type": "VEC3"
    },
    {
      "bufferView": 1,
      "byteOffset": 152216,
      "componentType": 5126,
      "count": 1125,
      "max": [
        0.8351699709892273,
        0.47644001245498657
      ],
      "min": [
        0.025669999420642853,
        0.002589999930933118
      ],
      "type": "VEC2"
    },
    {
      "bufferView": 0,
      "byteOffset": 168216,
      "componentType": 5125,
      "count": 2580,
      "type": "SCALAR"
    },
    {
      "bufferView": 2,
      "byteOffset": 483648,
      "componentType": 5126,
      "count": 1282,
      "max": [
        1.6104099750518799,
        1.1839699745178223,
        2.590179920196533
      ],
      "min": [
        -0.9770900011062622,
        -1.1839699745178223,
        -0.0946199968457222
      ],
      "type": "VEC3"
    },
    {
      "bufferView": 2,
      "byteOffset": 499032,
      "componentType": 5126,
      "count": 1282,
      "max": [
        1.0,
        1.0,
        1.0
      ],
      "min": [
        -1.0,
        -1.0,
        -1.0
      ],
      "type": "VEC3"
    },
    {
      "bufferView": 1,
      "byteOffset": 161216,
      "componentType": 5126,
      "count": 1282,
      "max": [
        0.9981399774551392,
        0.9994000196456909
      ],
      "min": [
        0.0015200000489130616,
        0.00215999991632998
      ],
      "type": "VEC2"
    },
    {
      "bufferView": 0,
      "byteOffset": 178536,
      "componentType": 5125,
      "count": 3354,
      "type": "SCALAR"
    },
    {
      "bufferView": 2,
      "byteOffset": 514416,
      "componentType": 5126,
      "count": 1125,
      "max": [
        3.423880100250244,
        0.8647300004959106,
        0.23319000005722046
      ],
      "min": [
        -1.2075799703598022,
        -0.8647300004959106,
        -0.5027499794960022
      ],
      "type": "VEC3"
    },
    {
      "bufferView": 2,
      "byteOffset": 527916,
      "componentType": 5126,
      "count": 1125,
      "max": [
        1.0,
        1.0,
        1.0
      ],
      "min": [
        -1.0,
        -1.0,
        -1.0
      ],
      "type": "VEC3"
    },
    {
      "bufferView": 1,
      "byteOffset": 171472,
      "componentType": 5126,
      "count": 1125,
      "max": [
        0.8351699709892273,
        0.47644001245498657
      ],
      "min": [
        0.025669999420642853,
        0.002589999930933118
      ],
      "type": "VEC2"
    },
    {
      "bufferView": 0,
      "byteOffset": 191952,
      "componentType": 5125,
      "count": 2580,
      "type": "SCALAR"
    },
    {
      "bufferView": 2,
      "byteOffset": 541416,
      "componentType": 5126,
      "count": 1282,
      "max": [
        1.6104099750518799,
        1.1839699745178223,
        2.590179920196533
      ],
      "min": [
        -0.9770900011062622,
        -1.1839699745178223,
        -0.0946199968457222
      ],
      "type": "VEC3"
    },
    {
      "bufferView": 2,
      "byteOffset": 556800,
      "componentType": 5126,
      "count": 1282,
      "max": [
        1.0,
        1.0,
        1.0
      ],
      "min": [
        -1.0,
        -1.0,
        -1.0
      ],
      "type": "VEC3"
    },
    {
      "bufferView": 1,
      "byteOffset": 180472,
      "componentType": 5126,
      "count": 1282,
      "max": [
        0.9981399774551392,
        0.9994000196456909
      ],
      "min": [
        0.0015200000489130616,
        0.00215999991632998
      ],
      "type": "VEC2"
    },
    {
      "bufferView": 0,
      "byteOffset": 202272,
      "componentType": 5125,
      "count": 3354,
      "type": "SCALAR"
    },
    {
      "bufferView": 2,
      "byteOffset": 572184,
      "componentType": 5126,
      "count": 2169,
      "max": [
        4.7935099601745605,
        1.6565799713134766,
        2.4224300384521484
      ],
      "min": [
        -4.161320209503174,
        -1.6565799713134766,
        0.0
      ],
      "type": "VEC3"
    },
    {
      "bufferView": 2,
      "byteOffset": 598212,
      "componentType": 5126,
      "count": 2169,
      "max": [
        1.0,
        1.0,
        1.0
      ],
      "min": [
        -1.0,
        -1.0,
        -1.0
      ],
      "type": "VEC3"
    },
    {
      "bufferView": 1,
      "byteOffset": 190728,
      "componentType": 5126,
      "count": 2169,
      "max": [
        0.99822998046875,
        0.9994099736213684
      ],
      "min": [
        0.0007699999841861427,
        0.0009399999980814755
      ],
      "type": "VEC2"
    },
    {
      "bufferView": 0,
      "byteOffset": 215688,
      "componentType": 5125,
      "count": 4932,
      "type": "SCALAR"
    },
    {
      "bufferView": 2,
      "byteOffset": 624240,
      "componentType": 5126,
      "count": 2169,
      "max": [
        4.7935099601745605,
        1.6565799713134766,
        2.4224300384521484
      ],
      "min": [
        -4.161320209503174,
        -1.6565799713134766,
        0.0
      ],
      "type": "VEC3"
    },
    {
      "bufferView": 2,
      "byteOffset": 650268,
      "componentType": 5126,
      "count": 2169,
      "max": [
        1.0,
        1.0,
        1.0
      ],
      "min": [
        -1.0,
        -1.0,
        -1.0
      ],
      "type": "VEC3"
    },
    {
      "bufferView": 1,
      "byteOffset": 208080,
      "componentType": 5126,
      "count": 2169,
      "max": [
        0.99822998046875,
        0.9994099736213684
      ],
      "min": [
        0.0007699999841861427,
        0.0009399999980814755
      ],
      "type": "VEC2"
    },
    {
      "bufferView": 0,
      "byteOffset": 235416,
      "componentType": 5125,
      "count": 4932,
      "type": "SCALAR"
    },
    {
      "bufferView": 2,
      "byteOffset": 676296,
      "componentType": 5126,
      "count": 236,
      "max": [
        22.017789840698242,
        3.7475900650024414,
        24.838899612426758
      ],
      "min": [
        -10.69025993347168,
        -3.7475900650024414,
        5.692190170288086
      ],
      "type": "VEC3"
    },
    {
      "bufferView": 2,
      "byteOffset": 679128,
      "componentType": 5126,
      "count": 236,
      "max": [
        0.8218898773193359,
        0.9999831914901733,
        1.0
      ],
      "min": [
        -0.9723925590515137,
        -0.9999831914901733,
        -0.4807889461517334
      ],
      "type": "VEC3"
    },
    {
      "bufferView": 1,
      "byteOffset": 225432,
      "componentType": 5126,
      "count": 236,
      "max": [
        8.281709671020508,
        0.9962800145149231
      ],
      "min": [
        -3.739409923553467,
        0.9729300141334534
      ],
      "type": "VEC2"
    },
    {
      "bufferView": 0,
      "byteOffset": 255144,
      "componentType": 5125,
      "count": 354,
      "type": "SCALAR"
    },
    {
      "bufferView": 2,
      "byteOffset": 681960,
      "componentType": 5126,
      "count": 17379,
      "max": [
        49.83464050292969,
        4.775979995727539,
        9.593629837036133
      ],
      "min": [
        -46.79888153076172,
        -4.775969982147217,
        2.463779926300049
      ],
      "type": "VEC3"
    },
    {
      "bufferView": 2,
      "byteOffset": 890508,
      "componentType": 5126,
      "count": 17379,
      "max": [
        1.0,
        1.0,
        1.0
      ],
      "min": [
        -1.0,
        -1.0,
        -1.0
      ],
      "type": "VEC3"
    },
    {
      "bufferView": 1,
      "byteOffset": 227320,
      "componentType": 5126,
      "count": 17379,
      "max": [
        0.9994099736213684,
        0.967930018901825
      ],
      "min": [
        -4.498149871826172,
        0.0042500002309679985
      ],
      "type": "VEC2"
    },
    {
      "bufferView": 0,
      "byteOffset": 256560,
      "componentType": 5125,
      "count": 45108,
      "type": "SCALAR"
    },
    {
      "bufferView": 2,
      "byteOffset": 1099056,
      "componentType": 5126,
      "count": 5753,
      "max": [
        49.88291931152344,
        4.85821008682251,
        26.169279098510742
      ],
      "min": [
        -47.25754165649414,
        -4.85821008682251,
        -3.27810001373291
      ],
      "type": "VEC3"
    },
    {
      "bufferView": 2,
      "byteOffset": 1168092,
      "componentType": 5126,
      "count": 5753,
      "max": [
        1.0,
        1.0,
        1.0
      ],
      "min": [
        -1.0,
        -1.0,
        -1.0
      ],
      "type": "VEC3"
    },
    {
      "bufferView": 1,
      "byteOffset": 366352,
      "componentType": 5126,
      "count": 5753,
      "max": [
        0.9992899894714355,
        0.9995599985122681
      ],
      "min": [
        0.0,
        0.0
      ],
      "type": "VEC2"
    },
    {
      "bufferView": 1,
      "byteOffset": 412376,
      "componentType": 5126,
      "count": 5753,
      "max": [
        7.266139984130859,
        4.26200008392334
      ],
      "min": [
        -1.6278799772262573,
        -1.939370036125183
      ],
      "type": "VEC2"
    },
    {
      "bufferView": 0,
      "byteOffset": 436992,
      "componentType": 5125,
      "count": 13554,
      "type": "SCALAR"
    },
    {
      "bufferView": 2,
      "byteOffset": 1237128,
      "componentType": 5126,
      "count": 492,
      "max": [
        3.9989700317382813,
        1.0401300191879272,
        0.8487100005149841
      ],
      "min": [
        -4.369080066680908,
        -1.0401300191879272,
        -0.47999998927116394
      ],
      "type": "VEC3"
    },
    {
      "bufferView": 2,
      "byteOffset": 1243032,
      "componentType": 5126,
      "count": 492,
      "max": [
        0.9996427297592163,
        1.0,
        1.0
      ],
      "min": [
        -0.9980692267417908,
        -1.0,
        -1.0
      ],
      "type": "VEC3"
    },
    {
      "bufferView": 1,
      "byteOffset": 458400,
      "componentType": 5126,
      "count": 492,
      "max": [
        0.9973300099372864,
        0.9961000084877014
      ],
      "min": [
        0.0014799999771639705,
        0.2202499955892563
      ],
      "type": "VEC2"
    },
    {
      "bufferView": 0,
      "byteOffset": 491208,
      "componentType": 5125,
      "count": 1536,
      "type": "SCALAR"
    },
    {
      "bufferView": 2,
      "byteOffset": 1248936,
      "componentType": 5126,
      "count": 858,
      "max": [
        5.471560001373291,
        1.3128999471664429,
        0.7805200219154358
      ],
      "min": [
        -4.448209762573242,
        -1.3128999471664429,
        -0.999809980392456
      ],
      "type": "VEC3"
    },
    {
      "bufferView": 2,
      "byteOffset": 1259232,
      "componentType": 5126,
      "count": 858,
      "max": [
        1.0,
        1.0,
        1.0
      ],
      "min": [
        -1.0,
        -1.0,
        -1.0
      ],
      "type": "VEC3"
    },
    {
      "bufferView": 1,
      "byteOffset": 462336,
      "componentType": 5126,
      "count": 858,
      "max": [
        0.9959200024604797,
        0.8300300240516663
      ],
      "min": [
        0.0038499999791383743,
        0.0052200001664459705
      ],
      "type": "VEC2"
    },
    {
      "bufferView": 0,
      "byteOffset": 497352,
      "componentType": 5125,
      "count": 2232,
      "type": "SCALAR"
    },
    {
      "bufferView": 2,
      "byteOffset": 1269528,
      "componentType": 5126,
      "count": 4750,
      "max": [
        49.830970764160156,
        4.707870006561279,
        9.949810028076172
      ],
      "min": [
        -46.827919006347656,
        -4.707870006561279,
        2.5966100692749023
      ],
      "type": "VEC3"
    },
    {
      "bufferView": 2,
      "byteOffset": 1326528,
      "componentType": 5126,
      "count": 4750,
      "max": [
        0.9999396204948425,
        1.0,
        0.9868410229682922
      ],
      "min": [
        -1.0,
        -1.0,
        -1.0
      ],
      "type": "VEC3"
    },
    {
      "bufferView": 1,
      "byteOffset": 469200,
      "componentType": 5126,
      "count": 4750,
      "max": [
        300.15582275390625,
        5.912990093231201
      ],
      "min": [
        -299.15582275390625,
        -1.4293999671936035
      ],
      "type": "VEC2"
    },
    {
      "bufferView": 0,
      "byteOffset": 506280,
      "componentType": 5125,
      "count": 11028,
      "type": "SCALAR"
    }
  ],
  "asset": {
    "extras": {
      "author": "ThomasBeerens (https://sketchfab.com/ThomasBeerens)",
      "license": "CC-BY-NC-4.0 (http://creativecommons.org/licenses/by-nc/4.0/)",
      "source": "https://sketchfab.com/3d-models/t-22-3e6572a1dcee4ab3b252a67a60d5d6f7",
      "title": "T-22"
    },
    "generator": "Sketchfab-12.67.0",
    "version": "2.0"
  },
  "bufferViews": [
    {
      "buffer": 0,
      "byteLength": 550392,
      "name": "floatBufferViews",
      "target": 34963
    },
    {
      "buffer": 0,
      "byteLength": 507200,
      "byteOffset": 550392,
      "byteStride": 8,
      "name": "floatBufferViews",
      "target": 34962
    },
    {
      "buffer": 0,
      "byteLength": 1383528,
      "byteOffset": 1057592,
      "byteStride": 12,
      "name": "floatBufferViews",
      "target": 34962
    }
  ],
  "buffers": [
    {
      "byteLength": 2441120,
      "uri": "scene.bin"
    }
  ],
  "images": [
    {
      "uri": "textures/Mat_T-22_Rudder_baseColor.jpg"
    },
    {
      "uri": "textures/Mat_T-22_Rudder_metallicRoughness.png"
    },
    {
      "uri": "textures/Mat_T-22_Propellor_baseColor.jpg"
    },
    {
      "uri": "textures/Mat_T-22_Propellor_metallicRoughness.png"
    },
    {
      "uri": "textures/Mat_T-22_Radar_1_baseColor.jpg"
    },
    {
      "uri": "textures/Mat_T-22_Radar_1_metallicRoughness.png"
    },
    {
      "uri": "textures/Mat_Flakzwilling_3_baseColor.jpg"
    },
    {
      "uri": "textures/Mat_Flakzwilling_3_metallicRoughness.png"
    },
    {
      "uri": "textures/Mat_AA_Flak.001_baseColor.jpg"
    },
    {
      "uri": "textures/Mat_AA_Flak.001_metallicRoughness.png"
    },
    {
      "uri": "textures/Mat_Flakvierling_baseColor.jpg"
    },
    {
      "uri": "textures/Mat_Flakvierling_metallicRoughness.png"
    },
    {
      "uri": "textures/Lamp.001_baseColor.jpg"
    },
    {
      "uri": "textures/Lamp.001_metallicRoughness.png"
    },
    {
      "uri": "textures/Mat_T-22_TorpedoTube_baseColor.jpg"
    },
    {
      "uri": "textures/Mat_T-22_TorpedoTube_metallicRoughness.png"
    },
    {
      "uri": "textures/Mat_T-22_Props_baseColor.jpg"
    },
    {
      "uri": "textures/Mat_T-22_Props_metallicRoughness.png"
    },
    {
      "uri": "textures/Mat_T-22_Hull_baseColor.jpg"
    },
    {
      "uri": "textures/Mat_T-22_Hull_metallicRoughness.png"
    },
    {
      "uri": "textures/Mat_T-22_Vessel_baseColor.jpg"
    },
    {
      "uri": "textures/Mat_T-22_Vessel_metallicRoughness.png"
    },
    {
      "uri": "textures/Lamp.002_baseColor.jpg"
    },
    {
      "uri": "textures/Lamp.002_metallicRoughness.png"
    }
  ],
  "materials": [
    {
      "doubleSided": true,
      "name": "Mat_T-22_Rudder",
      "pbrMetallicRoughness": {
        "baseColorTexture": {
          "index": 0
        },
        "metallicRoughnessTexture": {
          "index": 1
        }
      }
    },
    {
      "doubleSided": true,
      "name": "Mat_T-22_Propellor",
      "pbrMetallicRoughness": {
        "baseColorTexture": {
          "index": 2
        },
        "metallicRoughnessTexture": {
          "index": 3
        }
      }
    },
    {
      "doubleSided": true,
      "name": "Mat_T-22_Radar_1",
      "pbrMetallicRoughness": {
        "baseColorTexture": {
          "index": 4
        },
        "metallicRoughnessTexture": {
          "index": 5
        }
      }
    },
    {
      "doubleSided": true,
      "name": "Mat_Flakzwilling_3",
      "pbrMetallicRoughness": {
        "baseColorTexture": {
          "index": 6
        },
        "metallicRoughnessTexture": {
          "index": 7
        }
      }
    },
    {
      "doubleSided": true,
      "name": "Mat_AA_Flak.001",
      "pbrMetallicRoughness": {
        "baseColorTexture": {
          "index": 8
        },
        "metallicRoughnessTexture": {
          "index": 9
        }
      }
    },
    {
      "doubleSided": true,
      "name": "Mat_Flakvierling",
      "pbrMetallicRoughness": {
        "baseColorTexture": {
          "index": 10
        },
        "metallicRoughnessTexture": {
          "index": 11
        }
      }
    },
    {
      "doubleSided": true,
      "name": "Lamp.001",
      "pbrMetallicRoughness": {
        "baseColorTexture": {
          "index": 12
        },
        "metallicRoughnessTexture": {
          "index": 13
        }
      }
    },
    {
      "doubleSided": true,
      "name": "Mat_T-22_TorpedoTube",
      "pbrMetallicRoughness": {
        "baseColorTexture": {
          "index": 14
        },
        "metallicRoughnessTexture": {
          "index": 15
        }
      }
    },
    {
      "doubleSided": true,
      "name": "Mat_T-22_Props",
      "pbrMetallicRoughness": {
        "baseColorTexture": {
          "index": 16
        },
        "metallicRoughnessTexture": {
          "index": 17
        }
      }
    },
    {
      "doubleSided": true,
      "name": "Mat_T-22_Hull",
      "pbrMetallicRoughness": {
        "baseColorTexture": {
          "index": 18
        },
        "metallicRoughnessTexture": {
          "index": 19
        }
      }
    },
    {
      "doubleSided": true,
      "name": "Mat_T-22_Vessel",
      "pbrMetallicRoughness": {
        "baseColorTexture": {
          "index": 20
        },
        "metallicRoughnessTexture": {
          "index": 21
        }
      }
    },
    {
      "doubleSided": true,
      "name": "Lamp.002",
      "pbrMetallicRoughness": {
        "baseColorTexture": {
          "index": 22
        },
        "metallicRoughnessTexture": {
          "index": 23
        }
      }
    }
  ],
  "meshes": [
    {
      "name": "T-22_Rudder.001_0",
      "primitives": [
        {
          "attributes": {
            "NORMAL": 1,
            "POSITION": 0,
            "TEXCOORD_0": 2
          },
          "indices": 3,
          "material": 0,
          "mode": 4
        }
      ]
    },
    {
      "name": "T-22_Rudder.001_0",
      "primitives": [
        {
          "attributes": {
            "NORMAL": 5,
            "POSITION": 4,
            "TEXCOORD_0": 6
          },
          "indices": 7,
          "material": 0,
          "mode": 4
        }
      ]
    },
    {
      "name": "T-22_Propellor.001_0",
      "primitives": [
        {
          "attributes": {
            "NORMAL": 9,
            "POSITION": 8,
            "TEXCOORD_0": 10
          },
          "indices": 11,
          "material": 1,
          "mode": 4
        }
      ]
    },
    {
      "name": "T-22_Propellor.001_0",
      "primitives": [
        {
          "attributes": {
            "NORMAL": 13,
            "POSITION": 12,
            "TEXCOORD_0": 14
          },
          "indices": 15,
          "material": 1,
          "mode": 4
        }
      ]
    },
    {
      "name": "T-22_Radar_2_0",
      "primitives": [
        {
          "attributes": {
            "NORMAL": 17,
            "POSITION": 16,
            "TEXCOORD_0": 18
          },
          "indices": 19,
          "material": 2,
          "mode": 4
        }
      ]
    },
    {
      "name": "T-22_Radar_1_0",
      "primitives": [
        {
          "attributes": {
            "NORMAL": 21,
            "POSITION": 20,
            "TEXCOORD_0": 22
          },
          "indices": 23,
          "material": 2,
          "mode": 4
        }
      ]
    },
    {
      "name": "Flakzwilling2_turret.000_0",
      "primitives": [
        {
          "attributes": {
            "NORMAL": 25,
            "POSITION": 24,
            "TEXCOORD_0": 26
          },
          "indices": 27,
          "material": 3,
          "mode": 4
        }
      ]
    },
    {
      "name": "Flakzwilling2_barrel.000_0",
      "primitives": [
        {
          "attributes": {
            "NORMAL": 29,
            "POSITION": 28,
            "TEXCOORD_0": 30
          },
          "indices": 31,
          "material": 3,
          "mode": 4
        }
      ]
    },
    {
      "name": "Flak_turret.003_0",
      "primitives": [
        {
          "attributes": {
            "NORMAL": 33,
            "POSITION": 32,
            "TEXCOORD_0": 34
          },
          "indices": 35,
          "material": 4,
          "mode": 4
        }
      ]
    },
    {
      "name": "Flak_barrel.003_0",
      "primitives": [
        {
          "attributes": {
            "NORMAL": 37,
            "POSITION": 36,
            "TEXCOORD_0": 38
          },
          "indices": 39,
          "material": 4,
          "mode": 4
        }
      ]
    },
    {
      "name": "Flak_barrel.003_0",
      "primitives": [
        {
          "attributes": {
            "NORMAL": 41,
            "POSITION": 40,
            "TEXCOORD_0": 42
          },
          "indices": 43,
          "material": 4,
          "mode": 4
        }
      ]
    },
    {
      "name": "Flak_turret.003_0",
      "primitives": [
        {
          "attributes": {
            "NORMAL": 45,
            "POSITION": 44,
            "TEXCOORD_0": 46
          },
          "indices": 47,
          "material": 4,
          "mode": 4
        }
      ]
    },
    {
      "name": "Flak_barrel.003_0",
      "primitives": [
        {
          "attributes": {
            "NORMAL": 49,
            "POSITION": 48,
            "TEXCOORD_0": 50
          },
          "indices": 51,
          "material": 4,
          "mode": 4
        }
      ]
    },
    {
      "name": "Flak_turret.003_0",
      "primitives": [
        {
          "attributes": {
            "NORMAL": 53,
            "POSITION": 52,
            "TEXCOORD_0": 54
          },
          "indices": 55,
          "material": 4,
          "mode": 4
        }
      ]
    },
    {
      "name": "Flakvierling _Turret_0",
      "primitives": [
        {
          "attributes": {
            "NORMAL": 57,
            "POSITION": 56,
            "TEXCOORD_0": 58
          },
          "indices": 59,
          "material": 5,
          "mode": 4
        }
      ]
    },
    {
      "name": "Flakvierling _Barrel_0",
      "primitives": [
        {
          "attributes": {
            "NORMAL": 61,
            "POSITION": 60,
            "TEXCOORD_0": 62
          },
          "indices": 63,
          "material": 5,
          "mode": 4
        }
      ]
    },
    {
      "name": "Flakzwilling2_barrel.000_0",
      "primitives": [
        {
          "attributes": {
            "NORMAL": 65,
            "POSITION": 64,
            "TEXCOORD_0": 66
          },
          "indices": 67,
          "material": 3,
          "mode": 4
        }
      ]
    },
    {
      "name": "Flakzwilling2_turret.000_0",
      "primitives": [
        {
          "attributes": {
            "NORMAL": 69,
            "POSITION": 68,
            "TEXCOORD_0": 70
          },
          "indices": 71,
          "material": 3,
          "mode": 4
        }
      ]
    },
    {
      "name": "Flak_barrel.003_0",
      "primitives": [
        {
          "attributes": {
            "NORMAL": 73,
            "POSITION": 72,
            "TEXCOORD_0": 74
          },
          "indices": 75,
          "material": 4,
          "mode": 4
        }
      ]
    },
    {
      "name": "Flak_turret.003_0",
      "primitives": [
        {
          "attributes": {
            "NORMAL": 77,
            "POSITION": 76,
            "TEXCOORD_0": 78
          },
          "indices": 79,
          "material": 4,
          "mode": 4
        }
      ]
    },
    {
      "name": "T-22_Main_turret.003_0",
      "primitives": [
        {
          "attributes": {
            "NORMAL": 81,
            "POSITION": 80,
            "TEXCOORD_0": 82
          },
          "indices": 83,
          "material": 6,
          "mode": 4
        }
      ]
    },
    {
      "name": "T-22_Main_barrel.003_0",
      "primitives": [
        {
          "attributes": {
            "NORMAL": 85,
            "POSITION": 84,
            "TEXCOORD_0": 86
          },
          "indices": 87,
          "material": 6,
          "mode": 4
        }
      ]
    },
    {
      "name": "T-22_Main_barrel.003_0",
      "primitives": [
        {
          "attributes": {
            "NORMAL": 89,
            "POSITION": 88,
            "TEXCOORD_0": 90
          },
          "indices": 91,
          "material": 6,
          "mode": 4
        }
      ]
    },
    {
      "name": "T-22_Main_turret.003_0",
      "primitives": [
        {
          "attributes": {
            "NORMAL": 93,
            "POSITION": 92,
            "TEXCOORD_0": 94
          },
          "indices": 95,
          "material": 6,
          "mode": 4
        }
      ]
    },
    {
      "name": "T-22_Main_barrel.003_0",
      "primitives": [
        {
          "attributes": {
            "NORMAL": 97,
            "POSITION": 96,
            "TEXCOORD_0": 98
          },
          "indices": 99,
          "material": 6,
          "mode": 4
        }
      ]
    },
    {
      "name": "T-22_Main_turret.003_0",
      "primitives": [
        {
          "attributes": {
            "NORMAL": 101,
            "POSITION": 100,
            "TEXCOORD_0": 102
          },
          "indices": 103,
          "material": 6,
          "mode": 4
        }
      ]
    },
    {
      "name": "T-22_Main_barrel.003_0",
      "primitives": [
        {
          "attributes": {
            "NORMAL": 105,
            "POSITION": 104,
            "TEXCOORD_0": 106
          },
          "indices": 107,
          "material": 6,
          "mode": 4
        }
      ]
    },
    {
      "name": "T-22_Main_turret.003_0",
      "primitives": [
        {
          "attributes": {
            "NORMAL": 109,
            "POSITION": 108,
            "TEXCOORD_0": 110
          },
          "indices": 111,
          "material": 6,
          "mode": 4
        }
      ]
    },
    {
      "name": "T-22_TorpedoTubes.001_0",
      "primitives": [
        {
          "attributes": {
            "NORMAL": 113,
            "POSITION": 112,
            "TEXCOORD_0": 114
          },
          "indices": 115,
          "material": 7,
          "mode": 4
        }
      ]
    },
    {
      "name": "T-22_TorpedoTubes.001_0",
      "primitives": [
        {
          "attributes": {
            "NORMAL": 117,
            "POSITION": 116,
            "TEXCOORD_0": 118
          },
          "indices": 119,
          "material": 7,
          "mode": 4
        }
      ]
    },
    {
      "name": "T-22_Cables_0",
      "primitives": [
        {
          "attributes": {
            "NORMAL": 121,
            "POSITION": 120,
            "TEXCOORD_0": 122
          },
          "indices": 123,
          "material": 8,
          "mode": 4
        }
      ]
    },
    {
      "name": "T-22_Props_0",
      "primitives": [
        {
          "attributes": {
            "NORMAL": 125,
            "POSITION": 124,
            "TEXCOORD_0": 126
          },
          "indices": 127,
          "material": 8,
          "mode": 4
        }
      ]
    },
    {
      "name": "T-22_Hull_0",
      "primitives": [
        {
          "attributes": {
            "NORMAL": 129,
            "POSITION": 128,
            "TEXCOORD_0": 130,
            "TEXCOORD_1": 131
          },
          "indices": 132,
          "material": 9,
          "mode": 4
        }
      ]
    },
    {
      "name": "T-22_Vessel_2_0",
      "primitives": [
        {
          "attributes": {
            "NORMAL": 134,
            "POSITION": 133,
            "TEXCOORD_0": 135
          },
          "indices": 136,
          "material": 10,
          "mode": 4
        }
      ]
    },
    {
      "name": "T-22_Vessel_1_0",
      "primitives": [
        {
          "attributes": {
            "NORMAL": 138,
            "POSITION": 137,
            "TEXCOORD_0": 139
          },
          "indices": 140,
          "material": 10,
          "mode": 4
        }
      ]
    },
    {
      "name": "T-22_SideFence_0",
      "primitives": [
        {
          "attributes": {
            "NORMAL": 142,
            "POSITION": 141,
            "TEXCOORD_0": 143
          },
          "indices": 144,
          "material": 11,
          "mode": 4
        }
      ]
    }
  ],
  "nodes": [
    {
      "children": [
        1
      ],
      "matrix": [
        1.0,
        0.0,
        0.0,
        0.0,
        0.0,
        2.220446049250313e-16,
        -1.0,
        0.0,
        0.0,
        1.0,
        2.220446049250313e-16,
        0.0,
        0.0,
        0.0,
        0.0,
        1.0
      ],
      "name": "Sketchfab_model"
    },
    {
      "children": [
        2,
        83
      ],
      "name": "Root"
    },
    {
      "children": [
        3,
        18,
        70
      ],
      "name": "T-22"
    },
    {
      "children": [
        4,
        13
      ],
      "name": "T-22_Gear"
    },
    {
      "children": [
        5,
        7,
        9,
        11
      ],
      "name": "T-22_Movement"
    },
    {
      "children": [
        6
      ],
      "matrix": [
        1.0,
        0.0,
        0.0,
        0.0,
        0.0,
        1.0,
        0.0,
        0.0,
        0.0,
        0.0,
        1.0,
        0.0,
        -42.5,
        1.99443,
        -0.70628,
        1.0
      ],
      "name": "T-22_Rudder.001"
    },
    {
      "mesh": 0,
      "name": "T-22_Rudder.001_0"
    },
    {
      "children": [
        8
      ],
      "matrix": [
        1.0,
        0.0,
        0.0,
        0.0,
        0.0,
        1.0,
        0.0,
        0.0,
        0.0,
        0.0,
        1.0,
        0.0,
        -42.5,
        -1.99443,
        -0.70628,
        1.0
      ],
      "name": "T-22_Rudder"
    },
    {
      "mesh": 1,
      "name": "T-22_Rudder.001_0"
    },
    {
      "children": [
        10
      ],
      "matrix": [
        1.0,
        0.0,
        0.0,
        0.0,
        0.0,
        1.0,
        0.0,
        0.0,
        0.0,
        0.0,
        1.0,
        0.0,
        -40.33192,
        2.0,
        -2.3950799999999997,
        1.0
      ],
      "name": "T-22_Propellor.001"
    },
    {
      "mesh": 2,
      "name": "T-22_Propellor.001_0"
    },
    {
      "children": [
        12
      ],
      "matrix": [
        1.0,
        0.0,
        0.0,
        0.0,
        0.0,
        1.0,
        0.0,
        0.0,
        0.0,
        0.0,
        1.0,
        0.0,
        -40.33192,
        -2.0,
        -2.3950799999999997,
        1.0
      ],
      "name": "T-22_Propellor"
    },
    {
      "mesh": 3,
      "name": "T-22_Propellor.001_0"
    },
    {
      "children": [
        14,
        16
      ],
      "name": "T-22_Radar_System"
    },
    {
      "children": [
        15
      ],
      "matrix": [
        1.0,
        0.0,
        0.0,
        0.0,
        0.0,
        1.0,
        0.0,
        0.0,
        0.0,
        0.0,
        1.0,
        0.0,
        22.93286,
        4.000000000000002e-05,
        12.054530000000002,
        1.0
      ],
      "name": "T-22_Radar_2"
    },
    {
      "mesh": 4,
      "name": "T-22_Radar_2_0"
    },
    {
      "children": [
        17
      ],
      "matrix": [
        1.0,
        0.0,
        0.0,
        0.0,
        0.0,
        1.0,
        0.0,
        0.0,
        0.0,
        0.0,
        1.0,
        0.0,
        24.69963,
        0.0,
        10.153319999999999,
        1.0
      ],
      "name": "T-22_Radar_1"
    },
    {
      "mesh": 5,
      "name": "T-22_Radar_1_0"
    },
    {
      "children": [
        19,
        48,
        65
      ],
      "name": "T-22_Guns"
    },
    {
      "children": [
        20,
        24,
        28,
        32,
        36,
        40,
        44
      ],
      "name": "T-22_AA"
    },
    {
      "children": [
        21,
        22
      ],
      "matrix": [
        -0.0,
        1.0,
        0.0,
        0.0,
        -1.0,
        -0.0,
        0.0,
        0.0,
        0.0,
        0.0,
        1.0,
        0.0,
        -8.586480000000002,
        2.4757399999999996,
        4.718260000000001,
        1.0
      ],
      "name": "Flakzwilling2_turret.000"
    },
    {
      "mesh": 6,
      "name": "Flakzwilling2_turret.000_0"
    },
    {
      "children": [
        23
      ],
      "matrix": [
        0.9396900000000001,
        0.0,
        0.3420200000000001,
        0.0,
        0.0,
        1.0,
        0.0,
        0.0,
        -0.3420200000000001,
        0.0,
        0.9396900000000001,
        0.0,
        0.10252000000000001,
        -0.0,
        1.2002199999999998,
        1.0
      ],
      "name": "Flakzwilling2_barrel.000"
    },
    {
      "mesh": 7,
      "name": "Flakzwilling2_barrel.000_0"
    },
    {
      "children": [
        25,
        26
      ],
      "matrix": [
        0.0,
        1.0,
        0.0,
        0.0,
        -1.0,
        0.0,
        0.0,
        0.0,
        0.0,
        0.0,
        1.0,
        0.0,
        27.77947,
        3.8948799999999997,
        5.60107,
        1.0
      ],
      "name": "Flak_turret.003"
    },
    {
      "mesh": 8,
      "name": "Flak_turret.003_0"
    },
    {
      "children": [
        27
      ],
      "matrix": [
        0.9396900000000001,
        0.0,
        0.3420200000000001,
        0.0,
        0.0,
        1.0,
        0.0,
        0.0,
        -0.3420200000000001,
        0.0,
        0.9396900000000001,
        0.0,
        -0.38229,
        0.0,
        1.29274,
        1.0
      ],
      "name": "Flak_barrel.003"
    },
    {
      "mesh": 9,
      "name": "Flak_barrel.003_0"
    },
    {
      "children": [
        31,
        29
      ],
      "matrix": [
        -0.0,
        1.0,
        0.0,
        0.0,
        -1.0,
        -0.0,
        0.0,
        0.0,
        0.0,
        0.0,
        1.0,
        0.0,
        22.012539999999998,
        3.0617,
        7.804949999999999,
        1.0
      ],
      "name": "Flak_turret.002"
    },
    {
      "children": [
        30
      ],
      "matrix": [
        0.9396900000000001,
        0.0,
        0.3420200000000001,
        0.0,
        0.0,
        1.0,
        0.0,
        0.0,
        -0.3420200000000001,
        0.0,
        0.9396900000000001,
        0.0,
        -0.38229,
        -0.0,
        1.29274,
        1.0
      ],
      "name": "Flak_barrel.002"
    },
    {
      "mesh": 10,
      "name": "Flak_barrel.003_0"
    },
    {
      "mesh": 11,
      "name": "Flak_turret.003_0"
    },
    {
      "children": [
        35,
        33
      ],
      "matrix": [
        -0.0,
        -1.0,
        0.0,
        0.0,
        1.0,
        -0.0,
        0.0,
        0.0,
        0.0,
        0.0,
        1.0,
        0.0,
        22.012539999999998,
        -3.0617,
        7.804949999999999,
        1.0
      ],
      "name": "Flak_turret.001"
    },
    {
      "children": [
        34
      ],
      "matrix": [
        0.9396900000000001,
        0.0,
        0.3420200000000001,
        0.0,
        0.0,
        1.0,
        0.0,
        0.0,
        -0.3420200000000001,
        0.0,
        0.9396900000000001,
        0.0,
        -0.38229,
        0.0,
        1.29274,
        1.0
      ],
      "name": "Flak_barrel.001"
    },
    {
      "mesh": 12,
      "name": "Flak_barrel.003_0"
    },
    {
      "mesh": 13,
      "name": "Flak_turret.003_0"
    },
    {
      "children": [
        37,
        38
      ],
      "matrix": [
        -1.0,
        -0.0,
        0.0,
        0.0,
        0.0,
        -1.0,
        0.0,
        0.0,
        0.0,
        0.0,
        1.0,
        0.0,
        -19.665419999999997,
        2.000000000000001e-05,
        5.571400000000001,
        1.0
      ],
      "name": "Flakvierling _Turret"
    },
    {
      "mesh": 14,
      "name": "Flakvierling _Turret_0"
    },
    {
      "children": [
        39
      ],
      "matrix": [
        0.9396900000000001,
        0.0,
        0.3420200000000001,
        0.0,
        0.0,
        1.0,
        0.0,
        0.0,
        -0.3420200000000001,
        0.0,
        0.9396900000000001,
        0.0,
        0.16423000000000004,
        2.000000000000001e-05,
        1.15491,
        1.0
      ],
      "name": "Flakvierling _Barrel"
    },
    {
      "mesh": 15,
      "name": "Flakvierling _Barrel_0"
    },
    {
      "children": [
        43,
        41
      ],
      "matrix": [
        -0.0,
        -1.0,
        0.0,
        0.0,
        1.0,
        -0.0,
        0.0,
        0.0,
        0.0,
        0.0,
        1.0,
        0.0,
        -8.586480000000002,
        -2.4757399999999996,
        4.718260000000001,
        1.0
      ],
      "name": "Flakzwilling2_turret.002"
    },
    {
      "children": [
        42
      ],
      "matrix": [
        0.9396900000000001,
        0.0,
        0.3420200000000001,
        0.0,
        0.0,
        1.0,
        0.0,
        0.0,
        -0.3420200000000001,
        0.0,
        0.9396900000000001,
        0.0,
        0.10252000000000001,
        0.0,
        1.2002199999999998,
        1.0
      ],
      "name": "Flakzwilling2_barrel.002"
    },
    {
      "mesh": 16,
      "name": "Flakzwilling2_barrel.000_0"
    },
    {
      "mesh": 17,
      "name": "Flakzwilling2_turret.000_0"
    },
    {
      "children": [
        47,
        45
      ],
      "matrix": [
        -0.0,
        -1.0,
        0.0,
        0.0,
        1.0,
        -0.0,
        0.0,
        0.0,
        0.0,
        0.0,
        1.0,
        0.0,
        27.77947,
        -3.8948799999999997,
        5.60107,
        1.0
      ],
      "name": "Flak_turret"
    },
    {
      "children": [
        46
      ],
      "matrix": [
        0.9396900000000001,
        0.0,
        0.3420200000000001,
        0.0,
        0.0,
        1.0,
        0.0,
        0.0,
        -0.3420200000000001,
        0.0,
        0.9396900000000001,
        0.0,
        -0.38229,
        0.0,
        1.29274,
        1.0
      ],
      "name": "Flak_barrel"
    },
    {
      "mesh": 18,
      "name": "Flak_barrel.003_0"
    },
    {
      "mesh": 19,
      "name": "Flak_turret.003_0"
    },
    {
      "children": [
        49,
        53,
        57,
        61
      ],
      "name": "T-22_Guns_Main"
    },
    {
      "children": [
        50,
        51
      ],
      "matrix": [
        -1.0,
        -0.0,
        0.0,
        0.0,
        0.0,
        -1.0,
        0.0,
        0.0,
        0.0,
        0.0,
        1.0,
        0.0,
        -32.552859999999995,
        0.0,
        2.4962799999999996,
        1.0
      ],
      "name": "T-22_Main_turret.003"
    },
    {
      "mesh": 20,
      "name": "T-22_Main_turret.003_0"
    },
    {
      "children": [
        52
      ],
      "matrix": [
        1.0,
        0.0,
        0.0,
        0.0,
        0.0,
        1.0,
        0.0,
        0.0,
        0.0,
        0.0,
        1.0,
        0.0,
        -0.10592000000000001,
        0.0,
        1.65704,
        1.0
      ],
      "name": "T-22_Main_barrel.003"
    },
    {
      "mesh": 21,
      "name": "T-22_Main_barrel.003_0"
    },
    {
      "children": [
        56,
        54
      ],
      "matrix": [
        -1.0,
        -0.0,
        0.0,
        0.0,
        0.0,
        -1.0,
        0.0,
        0.0,
        0.0,
        0.0,
        1.0,
        0.0,
        -23.20167,
        0.0,
        3.7129399999999997,
        1.0
      ],
      "name": "T-22_Main_turret.002"
    },
    {
      "children": [
        55
      ],
      "matrix": [
        1.0,
        0.0,
        0.0,
        0.0,
        0.0,
        1.0,
        0.0,
        0.0,
        0.0,
        0.0,
        1.0,
        0.0,
        -0.10592000000000001,
        0.0,
        1.65704,
        1.0
      ],
      "name": "T-22_Main_barrel.002"
    },
    {
      "mesh": 22,
      "name": "T-22_Main_barrel.003_0"
    },
    {
      "mesh": 23,
      "name": "T-22_Main_turret.003_0"
    },
    {
      "children": [
        60,
        58
      ],
      "matrix": [
        1.0,
        0.0,
        0.0,
        0.0,
        0.0,
        1.0,
        0.0,
        0.0,
        0.0,
        0.0,
        1.0,
        0.0,
        -0.3408900000000001,
        0.0,
        3.68697,
        1.0
      ],
      "name": "T-22_Main_turret.001"
    },
    {
      "children": [
        59
      ],
      "matrix": [
        1.0,
        0.0,
        0.0,
        0.0,
        0.0,
        1.0,
        0.0,
        0.0,
        0.0,
        0.0,
        1.0,
        0.0,
        -0.10592000000000001,
        0.0,
        1.65704,
        1.0
      ],
      "name": "T-22_Main_barrel.001"
    },
    {
      "mesh": 24,
      "name": "T-22_Main_barrel.003_0"
    },
    {
      "mesh": 25,
      "name": "T-22_Main_turret.003_0"
    },
    {
      "children": [
        64,
        62
      ],
      "matrix": [
        1.0,
        0.0,
        0.0,
        0.0,
        0.0,
        1.0,
        0.0,
        0.0,
        0.0,
        0.0,
        1.0,
        0.0,
        33.25,
        0.0,
        3.68697,
        1.0
      ],
      "name": "T-22_Main_turret"
    },
    {
      "children": [
        63
      ],
      "matrix": [
        1.0,
        0.0,
        0.0,
        0.0,
        0.0,
        1.0,
        0.0,
        0.0,
        0.0,
        0.0,
        1.0,
        0.0,
        -0.10592000000000001,
        0.0,
        1.65704,
        1.0
      ],
      "name": "T-22_Main_barrel"
    },
    {
      "mesh": 26,
      "name": "T-22_Main_barrel.003_0"
    },
    {
      "mesh": 27,
      "name": "T-22_Main_turret.003_0"
    },
    {
      "children": [
        66,
        68
      ],
      "name": "T-22_Torpedoes"
    },
    {
      "children": [
        67
      ],
      "matrix": [
        1.0,
        0.0,
        0.0,
        0.0,
        0.0,
        1.0,
        0.0,
        0.0,
        0.0,
        0.0,
        1.0,
        0.0,
        -14.94359,
        0.0,
        3.13115,
        1.0
      ],
      "name": "T-22_TorpedoTubes.001"
    },
    {
      "mesh": 28,
      "name": "T-22_TorpedoTubes.001_0"
    },
    {
      "children": [
        69
      ],
      "matrix": [
        1.0,
        0.0,
        0.0,
        0.0,
        0.0,
        1.0,
        0.0,
        0.0,
        0.0,
        0.0,
        1.0,
        0.0,
        8.721519999999998,
        0.0,
        3.2811500000000002,
        1.0
      ],
      "name": "T-22_TorpedoTubes"
    },
    {
      "mesh": 29,
      "name": "T-22_TorpedoTubes.001_0"
    },
    {
      "children": [
        71,
        73,
        75,
        77,
        79,
        81
      ],
      "name": "T-22_Main_Parts"
    },
    {
      "children": [
        72
      ],
      "name": "T-22_Cables"
    },
    {
      "mesh": 30,
      "name": "T-22_Cables_0"
    },
    {
      "children": [
        74
      ],
      "name": "T-22_Props"
    },
    {
      "mesh": 31,
      "name": "T-22_Props_0"
    },
    {
      "children": [
        76
      ],
      "name": "T-22_Hull"
    },
    {
      "mesh": 32,
      "name": "T-22_Hull_0"
    },
    {
      "children": [
        78
      ],
      "matrix": [
        1.0,
        0.0,
        0.0,
        0.0,
        0.0,
        1.0,
        0.0,
        0.0,
        0.0,
        0.0,
        1.0,
        0.0,
        15.995740000000001,
        3.52802,
        4.94508,
        1.0
      ],
      "name": "T-22_Vessel_2"
    },
    {
      "mesh": 33,
      "name": "T-22_Vessel_2_0"
    },
    {
      "children": [
        80
      ],
      "matrix": [
        0.8500000000000001,
        0.0,
        0.0,
        0.0,
        0.0,
        0.8500000000000001,
        0.0,
        0.0,
        0.0,
        0.0,
        0.8500000000000001,
        0.0,
        15.9677,
        -3.6423900000000002,
        4.9313600000000015,
        1.0
      ],
      "name": "T-22_Vessel_1"
    },
    {
      "mesh": 34,
      "name": "T-22_Vessel_1_0"
    },
    {
      "children": [
        82
      ],
      "name": "T-22_SideFence"
    },
    {
      "mesh": 35,
      "name": "T-22_SideFence_0"
    },
    {
      "children": [
        84,
        86,
        88,
        90
      ],
      "name": "lights"
    },
    {
      "children": [
        85
      ],
      "matrix": [
        -0.031030000000000005,
        -0.99799,
        -0.05519000000000001,
        0.0,
        0.7944599999999999,
        -0.058130000000000015,
        0.6045200000000001,
        0.0,
        -0.6065200000000001,
        -0.025090000000000005,
        0.7946700000000001,
        0.0,
        -500.0,
        219.39664000000002,
        600.0,
        1.0
      ],
      "name": "Lamp.001"
    },
    {
      "name": "Lamp.001"
    },
    {
      "children": [
        87
      ],
      "matrix": [
        0.09780000000000003,
        -0.99367,
        -0.05519000000000001,
        0.0,
        0.79533,
        0.04470000000000001,
        0.6045200000000001,
        0.0,
        -0.59823,
        -0.10302000000000001,
        0.7946700000000001,
        0.0,
        -500.0,
        -219.39700000000002,
        600.0,
        1.0
      ],
      "name": "Lamp.002"
    },
    {
      "name": "Lamp.002"
    },
    {
      "children": [
        89
      ],
      "matrix": [
        0.031030000000000005,
        0.99799,
        -0.05519000000000001,
        0.0,
        -0.7944599999999999,
        0.058130000000000015,
        0.6045200000000001,
        0.0,
        0.6065200000000001,
        0.025090000000000005,
        0.7946700000000001,
        0.0,
        500.0,
        -219.39700000000002,
        600.0,
        1.0
      ],
      "name": "Lamp.003"
    },
    {
      "name": "Lamp.003"
    },
    {
      "children": [
        91
      ],
      "matrix": [
        -0.29086000000000006,
        0.9551700000000001,
        -0.05519000000000001,
        0.0,
        -0.7711,
        -0.19988000000000003,
        0.6045200000000001,
        0.0,
        0.5663900000000001,
        0.21839000000000003,
        0.7946700000000001,
        0.0,
        500.0,
        219.39664000000002,
        600.57611,
        1.0
      ],
      "name": "Lamp"
    },
    {
      "name": "Lamp"
    }
  ],
  "samplers": [
    {
      "magFilter": 9729,
      "minFilter": 9987,
      "wrapS": 10497,
      "wrapT": 10497
    }
  ],
  "scene": 0,
  "scenes": [
    {
      "name": "Sketchfab_Scene",
      "nodes": [
        0
      ]
    }
  ],
  "textures": [
    {
      "sampler": 0,
      "source": 0
    },
    {
      "sampler": 0,
      "source": 1
    },
    {
      "sampler": 0,
      "source": 2
    },
    {
      "sampler": 0,
      "source": 3
    },
    {
      "sampler": 0,
      "source": 4
    },
    {
      "sampler": 0,
      "source": 5
    },
    {
      "sampler": 0,
      "source": 6
    },
    {
      "sampler": 0,
      "source": 7
    },
    {
      "sampler": 0,
      "source": 8
    },
    {
      "sampler": 0,
      "source": 9
    },
    {
      "sampler": 0,
      "source": 10
    },
    {
      "sampler": 0,
      "source": 11
    },
    {
      "sampler": 0,
      "source": 12
    },
    {
      "sampler": 0,
      "source": 13
    },
    {
      "sampler": 0,
      "source": 14
    },
    {
      "sampler": 0,
      "source": 15
    },
    {
      "sampler": 0,
      "source": 16
    },
    {
      "sampler": 0,
      "source": 17
    },
    {
      "sampler": 0,
      "source": 18
    },
    {
      "sampler": 0,
      "source": 19
    },
    {
      "sampler": 0,
      "source": 20
    },
    {
      "sampler": 0,
      "source": 21
    },
    {
      "sampler": 0,
      "source": 22
    },
    {
      "sampler": 0,
      "source": 23
    }
  ]
}
